<?xml version="1.0" standalone="no"?>
<!DOCTYPE svg PUBLIC "-//W3C//DTD SVG 20010904//EN"
 "http://www.w3.org/TR/2001/REC-SVG-20010904/DTD/svg10.dtd">
<svg version="1.0" xmlns="http://www.w3.org/2000/svg"
 width="256.000000pt" height="256.000000pt" viewBox="0 0 256.000000 256.000000"
 preserveAspectRatio="xMidYMid meet">

<g transform="translate(0.000000,256.000000) scale(0.100000,-0.100000)"
fill="#000000" stroke="none">
<path d="M0 2509 c0 -49 1 -51 40 -67 44 -19 51 -30 43 -61 l-5 -22 -35 21
c-19 11 -36 20 -39 20 -2 0 -4 -540 -4 -1200 l0 -1200 1280 0 1280 0 0 1280 0
1280 -1280 0 -1280 0 0 -51z m156 -120 c36 -22 39 -26 25 -48 -16 -25 -78 7
-75 39 3 37 5 37 50 9z m2354 -159 c0 -5 -8 -10 -17 -10 -15 0 -16 2 -3 10 19
12 20 12 20 0z m-791 -899 c23 -15 -4 -46 -61 -73 -55 -26 -200 -60 -441 -103
-76 -14 -148 -32 -160 -40 -12 -8 -17 -15 -12 -15 6 0 4 -4 -4 -9 -12 -8 -12
-12 2 -26 10 -9 14 -22 10 -28 -6 -9 -12 -117 -6 -117 1 0 8 3 17 6 13 5 16
23 16 89 l0 82 58 12 c55 12 109 21 372 61 145 22 322 29 327 13 2 -5 14 -8
27 -6 17 4 25 -1 29 -16 2 -11 0 -23 -7 -26 -8 -3 -8 -7 2 -11 15 -7 16 -34 1
-34 -5 0 -8 -4 -5 -9 3 -5 -10 -16 -30 -26 -19 -9 -37 -22 -40 -30 -3 -7 -17
-15 -32 -18 -15 -3 -37 -14 -50 -25 l-22 -20 22 -7 c19 -6 20 -8 6 -12 -10 -2
-18 -8 -18 -12 0 -4 -6 -8 -14 -8 -8 0 -12 6 -9 14 3 7 3 20 -1 28 -5 13 -9
12 -26 -5 -11 -11 -26 -17 -35 -14 -8 4 -15 1 -15 -5 0 -6 -8 -11 -18 -11 -12
0 -23 -13 -31 -36 -13 -36 -13 -36 -25 -13 -12 25 -44 37 -55 22 -11 -15 -51
-34 -51 -23 0 19 -39 10 -51 -11 -6 -13 -14 -17 -18 -11 -6 11 -75 10 -102 -2
-10 -5 -19 -2 -22 8 -5 13 -15 14 -71 7 -4 0 -6 -8 -2 -16 6 -18 1 -19 -25 -5
-13 8 -25 7 -39 0 -17 -9 -20 -6 -25 23 -6 31 -8 32 -46 29 -33 -4 -43 0 -56
17 -8 12 -20 20 -26 18 -7 -2 -17 2 -24 9 -7 7 -18 15 -25 17 -10 4 -8 9 5 20
22 18 22 23 -2 30 -30 8 -45 -7 -32 -31 15 -28 14 -42 -3 -42 -23 0 -70 -67
-61 -87 4 -10 8 -29 9 -41 1 -13 9 -28 18 -33 15 -8 14 -14 -5 -60 l-22 -50
-100 7 c-55 3 -101 7 -102 8 -1 1 -3 63 -5 139 l-3 137 -43 0 c-28 0 -42 -4
-41 -12 1 -7 1 -68 0 -135 l-1 -123 -62 0 c-35 0 -100 3 -145 7 l-83 6 0 103
0 104 -50 0 -50 0 0 63 c0 34 4 68 9 75 10 17 131 49 213 57 35 4 72 10 83 15
11 4 58 13 105 20 99 13 110 15 130 23 8 3 38 8 65 11 28 3 88 12 135 21 119
22 200 34 310 45 52 5 183 30 290 54 210 48 228 50 249 37z m131 -301 c0 -5
-4 -10 -10 -10 -5 0 -10 5 -10 10 0 6 5 10 10 10 6 0 10 -4 10 -10z m-920
-130 c0 -5 -9 -10 -21 -10 -11 0 -17 5 -14 10 3 6 13 10 21 10 8 0 14 -4 14
-10z m173 -171 c34 -1 145 -5 247 -8 l185 -7 -225 -2 c-124 -1 -262 1 -307 5
-72 5 -83 8 -83 24 0 11 -5 19 -11 19 -6 0 -8 -8 -4 -20 4 -13 0 -23 -14 -32
-15 -9 -17 -15 -9 -25 7 -9 7 -13 -1 -13 -6 0 -11 -7 -11 -15 0 -8 9 -15 20
-15 15 0 22 -9 27 -30 3 -16 12 -30 19 -30 8 0 14 -4 14 -9 0 -12 -49 -20 -83
-14 -23 5 -25 8 -15 21 11 12 11 16 0 20 -7 2 -19 10 -27 19 -13 13 -15 12
-15 -11 0 -14 5 -28 10 -31 22 -14 9 -26 -21 -20 -24 6 -30 4 -24 -6 6 -9 3
-11 -9 -6 -10 4 -94 7 -187 7 -94 0 -168 4 -165 9 3 4 -54 11 -126 15 -72 4
-139 11 -149 17 -12 6 -19 21 -19 39 0 27 4 29 46 36 25 3 75 4 112 1 37 -4
150 -9 252 -12 215 -7 287 -13 295 -26 10 -15 21 -10 23 11 1 11 2 26 3 33 1
6 -2 21 -7 31 -6 16 -4 18 10 13 14 -5 17 -3 12 8 -3 8 -1 27 5 41 8 24 13 26
45 21 36 -6 37 -5 48 44 5 22 10 25 36 21 24 -3 30 0 32 14 1 11 4 -16 5 -58
l4 -78 62 -1z m-173 97 c0 -2 -9 -6 -20 -9 -11 -3 -20 -1 -20 4 0 5 9 9 20 9
11 0 20 -2 20 -4z m768 -123 c-26 -2 -71 -2 -100 0 -29 2 -8 3 47 3 55 0 79
-1 53 -3z m-738 -54 c15 -28 5 -23 -15 7 -9 15 -12 23 -6 20 6 -4 16 -16 21
-27z m38 -54 c-3 -3 -9 2 -12 12 -6 14 -5 15 5 6 7 -7 10 -15 7 -18z m182 -34
c63 -6 192 -15 285 -22 94 -7 217 -18 275 -24 l105 -13 -200 3 c-122 2 -175 0
-135 -4 l65 -8 -67 -1 c-38 -1 -68 2 -68 7 0 5 -59 10 -131 10 -72 1 -134 3
-138 5 -4 3 -36 7 -71 10 -36 4 -92 9 -125 13 l-60 6 40 12 c51 16 83 17 225
6z m433 -68 c-7 -2 -19 -2 -25 0 -7 3 -2 5 12 5 14 0 19 -2 13 -5z"/>
</g>
</svg>
